<svg width="36" height="40" viewBox="0 0 36 40" fill="none" xmlns="http://www.w3.org/2000/svg">
<g filter="url(#filter0_d_209_407)">
<path d="M9.86903 28.334C9.25679 28.9189 8.44448 29.2482 7.59777 29.2548C5.62277 29.2548 3.99832 27.4205 3.99832 25.1591C3.99832 22.8978 5.61042 21.061 7.59777 21.061C6.03752 11.7834 10.4714 8.24076 14.2338 6.95701C18.2406 5.59178 23.9582 5.44366 27.8934 12.5117C30.8066 17.7479 33.1568 28.7265 26.5726 33.4961C19.6083 38.5497 11.3552 33.39 10.032 28.3858L9.86903 28.334Z" fill="#FFD0B8"/>
</g>
<path d="M8.70378 25.9615C8.89387 24.8258 8.22977 23.7865 7.18796 23.8828" stroke="black" stroke-width="0.625" stroke-linecap="round" stroke-linejoin="round"/>
<path d="M10.9577 26.628C10.7426 27.2779 10.3694 27.8641 9.8715 28.3339C9.25926 28.9188 8.44695 29.2482 7.60024 29.2548C5.62524 29.2548 4.00079 27.4205 4.00079 25.1591C4.00079 22.8977 5.6129 21.061 7.60024 21.061C8.47923 21.0692 9.31944 21.4241 9.93816 22.0485" stroke="black" stroke-width="0.625" stroke-linecap="round" stroke-linejoin="round"/>
<path d="M7.60028 21.061C6.04002 11.7834 10.4739 8.24076 14.2363 6.95701C18.2431 5.59178 23.9607 5.44366 27.8959 12.5117C30.8091 17.7479 33.1593 28.7265 26.5751 33.4961C19.6108 38.5497 11.3577 33.39 10.0345 28.3858" stroke="black" stroke-width="0.625" stroke-linecap="round" stroke-linejoin="round"/>
<path d="M10.153 14.1682C10.1382 14.1213 10.1258 14.0941 10.1209 14.0793C10.1292 14.1097 10.14 14.1394 10.153 14.1682ZM12.128 11.0427C12.1552 11.1242 12.9773 13.3732 11.7256 14.3113C10.6887 15.089 10.2814 14.4447 10.1678 14.178C10.4468 14.9434 12.0712 19.7327 9.92094 22.041C9.4065 21.4928 8.71118 21.1491 7.96322 21.0733C7.25312 20.9628 6.5274 21.1223 5.92895 21.5201C5.92895 21.5201 4.2971 18.6243 3.81817 15.842C3.33923 13.0597 6.28692 10.5736 6.28692 10.5736C6.28692 10.5736 3.17382 10.2552 3.41329 8.65788C3.65276 7.06059 6.92634 8.49991 6.92634 8.49991C6.92634 8.49991 4.61064 2.75262 7.2448 2.43415C9.87896 2.11568 9.71356 7.22354 9.7975 7.46054C9.88144 7.69754 15.5596 0.794908 20.0922 1.39728C23.0547 1.79475 23.4448 4.82886 23.4448 4.82886C23.4448 4.82886 26.0789 4.03143 28.0737 4.98931C31.4411 6.60388 31.6016 11.1094 28.2515 13.0251C28.2515 13.0251 27.3726 11.1094 26.3332 10.2329L26.2518 10.0848C22.1092 12.3981 17.379 9.77623 17.379 9.77623C13.7969 12.2524 12.1897 11.097 12.1181 11.0427H12.128Z" fill="#C5C5FF"/>
<path d="M10.1579 14.178C10.4368 14.9434 12.0613 19.7327 9.91098 22.041C9.39653 21.4928 8.70121 21.1491 7.95325 21.0733C7.24316 20.9628 6.51745 21.1223 5.919 21.5201C5.919 21.5201 4.28716 18.6243 3.80822 15.842C3.32928 13.0597 6.27697 10.5736 6.27697 10.5736C6.27697 10.5736 3.16387 10.2552 3.40334 8.65788C3.64281 7.06059 6.91637 8.4999 6.91637 8.4999C6.91637 8.4999 4.60069 2.75262 7.23485 2.43415C9.86901 2.11568 9.7036 7.22354 9.78754 7.46054C9.87147 7.69754 15.5496 0.794908 20.0823 1.39728C23.0448 1.79475 23.4348 4.82886 23.4348 4.82886C23.4348 4.82886 26.069 4.03143 28.0637 4.98931C31.4311 6.60388 31.5916 11.1094 28.2415 13.0251C28.2415 13.0251 27.3626 11.1094 26.3233 10.2329" stroke="black" stroke-width="0.625" stroke-linecap="round" stroke-linejoin="round"/>
<path d="M10.1159 14.0793C10.1159 14.0941 10.1332 14.1212 10.148 14.1682" stroke="black" stroke-width="1.25" stroke-linecap="round" stroke-linejoin="round"/>
<path d="M12.1181 11.0428C12.1452 11.1242 12.9673 13.3733 11.7157 14.3114C10.6788 15.089 10.2714 14.4447 10.1579 14.1781" stroke="black" stroke-width="0.625" stroke-linecap="round" stroke-linejoin="round"/>
<path d="M27.6762 9.04306C27.2438 9.43962 26.7666 9.78431 26.2542 10.0701C22.1116 12.3833 17.3815 9.76148 17.3815 9.76148C13.7969 12.2574 12.1971 11.0946 12.1181 11.0403" stroke="black" stroke-width="0.625" stroke-linecap="round" stroke-linejoin="round"/>
<path d="M33.3987 19.8957C34.1882 19.8957 34.8281 19.2557 34.8281 18.4663C34.8281 17.6769 34.1882 17.0369 33.3987 17.0369C32.6093 17.0369 31.9693 17.6769 31.9693 18.4663C31.9693 19.2557 32.6093 19.8957 33.3987 19.8957Z" fill="black"/>
<path d="M17.6161 20.1277C18.4055 20.1277 19.0455 19.4878 19.0455 18.6983C19.0455 17.9089 18.4055 17.2689 17.6161 17.2689C16.8266 17.2689 16.1866 17.9089 16.1866 18.6983C16.1866 19.4878 16.8266 20.1277 17.6161 20.1277Z" fill="black"/>
<path d="M33.3987 19.8957C34.1882 19.8957 34.8281 19.2557 34.8281 18.4663C34.8281 17.6769 34.1882 17.0369 33.3987 17.0369C32.6093 17.0369 31.9693 17.6769 31.9693 18.4663C31.9693 19.2557 32.6093 19.8957 33.3987 19.8957Z" fill="black"/>
<path d="M22.6523 19.5798C23.5016 21.1351 26.0419 20.7104 26.748 19.2983" stroke="black" stroke-width="0.625" stroke-linecap="round" stroke-linejoin="round"/>
<defs>
<filter id="filter0_d_209_407" x="3.99832" y="6.21667" width="26.8065" height="33.1021" filterUnits="userSpaceOnUse" color-interpolation-filters="sRGB">
<feFlood flood-opacity="0" result="BackgroundImageFix"/>
<feColorMatrix in="SourceAlpha" type="matrix" values="0 0 0 0 0 0 0 0 0 0 0 0 0 0 0 0 0 0 127 0" result="hardAlpha"/>
<feOffset dy="3.75"/>
<feComposite in2="hardAlpha" operator="out"/>
<feColorMatrix type="matrix" values="0 0 0 0 0.94902 0 0 0 0 0.905882 0 0 0 0 0.917647 0 0 0 1 0"/>
<feBlend mode="normal" in2="BackgroundImageFix" result="effect1_dropShadow_209_407"/>
<feBlend mode="normal" in="SourceGraphic" in2="effect1_dropShadow_209_407" result="shape"/>
</filter>
</defs>
</svg>
